<?xml version="1.0" standalone="no"?>
<!DOCTYPE svg PUBLIC "-//W3C//DTD SVG 20010904//EN"
 "http://www.w3.org/TR/2001/REC-SVG-20010904/DTD/svg10.dtd">
<svg version="1.0" xmlns="http://www.w3.org/2000/svg"
 width="1024.000000pt" height="1024.000000pt" viewBox="0 0 1024.000000 1024.000000"
 preserveAspectRatio="xMidYMid meet">
<metadata>
Created by potrace 1.11, written by Peter Selinger 2001-2013
</metadata>
<g transform="translate(0.000000,1024.000000) scale(0.100000,-0.100000)"
fill="#000000" stroke="none">
<path d="M1155 9420 c-80 -20 -125 -59 -125 -110 0 -48 54 -152 109 -210 66
-69 172 -280 336 -670 59 -140 152 -361 207 -490 55 -129 144 -325 198 -435
151 -307 240 -425 318 -425 58 0 110 136 127 330 13 160 32 311 50 400 21 107
30 145 51 220 55 197 99 312 180 474 113 224 310 475 477 607 27 22 47 39 45
39 -1 1 -43 3 -93 5 -146 6 -394 48 -917 154 -163 34 -160 33 -313 60 -125 22
-166 29 -233 37 -26 3 -74 9 -107 13 -75 10 -270 11 -310 1z"/>
<path d="M8690 9409 c-74 -10 -160 -22 -190 -28 -194 -35 -299 -55 -406 -77
-67 -14 -132 -27 -145 -29 -24 -5 -270 -53 -299 -60 -14 -2 -66 -11 -130 -21
-14 -3 -36 -6 -50 -9 -88 -16 -175 -26 -265 -30 -44 -2 -84 -4 -89 -4 -5 -1 4
-11 20 -23 199 -155 385 -392 516 -661 71 -146 144 -346 173 -477 28 -123 45
-202 49 -234 4 -21 8 -48 11 -60 5 -23 15 -115 21 -191 23 -303 75 -442 157
-421 71 17 155 135 290 406 105 210 96 191 302 680 294 704 330 776 474 966
46 60 81 137 81 178 0 32 -36 75 -79 94 -53 23 -272 24 -441 1z"/>
<path d="M3202 9200 c-34 -22 -62 -42 -62 -44 0 -7 75 11 97 22 20 11 40 48
31 58 -3 2 -32 -14 -66 -36z"/>
<path d="M6970 9227 c0 -26 26 -48 73 -62 57 -17 60 -7 10 27 -66 43 -83 50
-83 35z"/>
<path d="M3877 7984 c-1 -1 -29 -5 -62 -8 -33 -3 -81 -12 -107 -20 -27 -8 -48
-13 -48 -11 0 2 -16 -3 -35 -11 -19 -8 -35 -11 -35 -7 0 4 -5 2 -12 -5 -7 -7
-18 -12 -26 -12 -14 0 -23 -3 -157 -65 -78 -35 -255 -132 -265 -145 -3 -3 -23
-17 -45 -30 -22 -13 -44 -28 -50 -32 -5 -5 -44 -34 -85 -66 -122 -92 -264
-229 -276 -264 -3 -10 -10 -18 -15 -18 -6 0 -9 -12 -7 -27 3 -25 7 -28 33 -25
32 3 158 60 163 74 2 4 10 8 17 8 8 0 20 6 27 13 43 41 345 178 408 185 3 0
17 5 33 11 15 6 39 13 54 16 15 2 51 9 81 16 29 6 56 9 58 6 2 -2 -13 -15 -33
-29 -21 -14 -56 -41 -77 -59 -42 -37 -196 -189 -190 -189 4 0 -32 -43 -56 -68
-26 -26 -155 -214 -197 -287 -35 -61 -134 -263 -138 -283 -2 -9 -10 -36 -19
-60 -14 -40 -16 -95 -3 -108 17 -17 93 55 162 151 11 16 26 34 33 41 6 7 12
15 12 19 0 4 6 12 13 20 6 7 28 32 47 56 45 56 174 183 220 217 19 15 37 30
40 33 4 5 65 46 109 74 9 6 28 18 42 27 14 10 29 15 33 11 3 -3 6 -1 6 5 0 6
10 14 23 18 12 4 45 18 72 31 28 14 61 27 75 29 13 3 29 9 35 13 9 7 75 25
131 36 11 2 19 4 19 5 0 4 45 11 165 27 99 12 306 7 397 -11 11 -3 43 -8 70
-12 26 -3 54 -11 61 -16 6 -6 12 -8 12 -5 0 5 38 -4 72 -18 16 -6 17 -3 12 26
-6 36 -22 94 -31 119 -4 8 -7 17 -8 20 -37 137 -152 334 -238 409 -10 9 -32
28 -48 42 -45 40 -169 101 -229 114 -80 16 -233 28 -243 19z"/>
<path d="M6214 7981 c-2 -3 -12 -5 -22 -6 -61 -6 -97 -18 -197 -66 -123 -59
-258 -213 -334 -381 -11 -26 -21 -53 -21 -60 0 -8 -4 -18 -9 -23 -11 -12 -64
-205 -58 -211 2 -3 15 -1 28 4 51 20 96 31 144 38 28 3 53 8 56 10 12 7 168
18 254 17 238 -1 437 -49 650 -155 70 -35 199 -117 203 -129 2 -5 7 -9 12 -9
25 0 310 -288 310 -313 0 -7 2 -10 90 -117 34 -41 67 -77 73 -79 7 -2 15 -8
18 -13 3 -5 13 -6 23 -2 36 14 6 124 -85 309 -75 151 -101 198 -116 208 -7 4
-13 12 -13 17 0 20 -148 221 -192 261 -10 9 -18 19 -18 22 0 16 -203 203 -261
240 -16 11 -29 21 -29 23 0 5 79 -4 89 -10 3 -2 23 -7 43 -10 116 -18 346
-115 521 -219 42 -25 94 -54 115 -62 20 -9 45 -21 54 -25 15 -8 55 -6 64 3 2
2 -6 21 -17 44 -39 79 -275 290 -439 393 -30 19 -57 37 -60 40 -3 4 -12 9 -20
13 -8 3 -37 20 -65 37 -27 16 -57 33 -65 36 -8 4 -51 24 -95 45 -44 20 -111
47 -150 60 -38 12 -74 24 -80 28 -5 3 -14 6 -20 7 -5 1 -21 4 -35 7 -49 11
-125 25 -140 26 -54 4 -202 6 -206 2z"/>
<path d="M5005 6024 c-88 -62 -167 -119 -175 -126 -9 -8 -34 -25 -55 -38 -22
-13 -42 -27 -45 -30 -3 -3 -40 -30 -82 -60 -71 -49 -91 -72 -70 -82 11 -5 52
-66 52 -78 0 -5 6 -10 13 -11 6 0 21 -2 32 -4 87 -16 153 -28 172 -30 12 -2
36 -6 55 -10 18 -4 44 -9 58 -11 101 -14 120 -17 120 -23 -1 -6 -35 -31 -177
-131 -68 -47 -72 -52 -60 -73 6 -12 14 -24 17 -27 3 -3 48 -66 100 -140 52
-74 98 -136 102 -138 4 -2 8 -10 8 -17 0 -7 4 -15 8 -17 4 -1 18 -20 31 -40
21 -35 41 -49 41 -29 0 4 13 24 30 42 16 19 30 37 30 40 0 3 18 25 40 50 22
24 40 47 40 51 0 3 15 24 33 46 65 80 87 108 115 146 l30 40 -33 25 c-18 15
-71 55 -119 91 -88 67 -102 86 -63 86 23 1 118 12 173 20 30 5 62 9 154 19 25
3 54 7 64 9 11 1 39 27 63 57 39 49 42 55 25 66 -9 7 -24 18 -32 26 -8 7 -73
58 -145 112 -71 55 -153 117 -180 140 -28 22 -63 49 -79 60 -27 19 -48 36 -91
74 -12 9 -25 20 -30 23 -6 3 -82 -46 -170 -108z"/>
<path d="M2565 5255 c-232 -51 -396 -145 -573 -325 -67 -69 -172 -202 -172
-218 0 -6 -4 -12 -8 -14 -13 -5 -74 -110 -128 -218 -87 -177 -183 -442 -219
-610 -2 -8 -11 -46 -20 -85 -21 -85 -24 -101 -31 -144 -3 -18 -8 -43 -10 -55
-4 -19 -7 -37 -19 -116 -12 -79 -24 -179 -33 -285 -9 -116 -9 -515 0 -580 17
-115 21 -132 37 -164 23 -48 45 -60 70 -37 19 17 65 120 75 168 3 13 10 43 17
68 6 25 13 54 15 65 2 11 15 77 29 146 14 70 35 158 46 195 11 38 22 79 25 92
2 12 20 66 40 120 20 53 37 102 38 107 17 61 148 318 220 430 52 80 77 107 61
68 -9 -24 -29 -314 -26 -378 6 -118 12 -208 16 -240 3 -22 8 -65 10 -95 6 -60
8 -76 30 -195 7 -44 16 -97 20 -119 3 -21 7 -42 10 -46 2 -3 7 -22 10 -41 3
-19 8 -42 11 -51 5 -16 10 -40 20 -87 3 -14 7 -28 10 -33 3 -5 8 -21 10 -36 5
-26 19 -77 34 -117 4 -11 17 -51 29 -90 12 -38 34 -100 47 -137 14 -37 25 -70
25 -73 -1 -3 10 -27 24 -55 14 -27 25 -56 25 -65 0 -8 5 -15 10 -15 6 0 10 -5
10 -11 0 -15 53 -121 93 -184 40 -64 91 -115 115 -115 49 0 48 177 -2 410 -12
55 -17 78 -27 140 -22 132 -27 174 -36 300 -12 164 -6 425 12 531 2 13 6 40 9
59 3 19 12 67 20 105 8 39 17 82 20 95 13 66 90 299 114 345 30 59 32 65 32
80 0 8 5 15 12 15 6 0 9 3 6 6 -18 17 223 405 317 511 5 6 33 37 60 69 114
133 298 302 450 415 33 24 62 47 63 52 2 4 8 5 13 1 5 -3 12 2 15 10 3 9 10
16 14 16 11 0 113 62 121 73 3 4 16 9 27 10 12 1 22 4 22 7 0 7 -218 125 -247
134 -13 4 -23 12 -23 17 0 5 -6 9 -13 9 -8 0 -27 6 -43 14 -29 15 -85 38 -94
40 -3 1 -9 4 -15 7 -9 6 -139 51 -157 55 -5 1 -10 3 -13 4 -3 1 -8 3 -12 4 -5
2 -26 7 -48 14 -41 11 -80 20 -125 27 -14 2 -54 8 -91 14 -103 17 -261 11
-374 -14z"/>
<path d="M6989 5276 c-4 -4 -35 -10 -119 -22 -19 -3 -44 -8 -55 -11 -11 -4
-24 -8 -30 -9 -5 -1 -30 -8 -55 -15 -25 -7 -47 -13 -50 -14 -120 -32 -448
-181 -540 -245 -14 -9 -31 -19 -39 -22 -9 -2 1 -11 25 -23 46 -22 118 -67 122
-77 2 -5 8 -8 14 -8 14 0 201 -141 283 -213 487 -429 777 -953 860 -1552 25
-178 25 -485 0 -680 -11 -86 -15 -112 -20 -135 -2 -13 -7 -42 -10 -65 -3 -22
-8 -48 -11 -57 -3 -9 -7 -27 -9 -40 -3 -13 -7 -36 -11 -51 -3 -16 -8 -41 -10
-55 -27 -194 -24 -273 11 -302 22 -18 102 71 150 165 22 44 46 85 53 93 6 7
12 17 12 22 0 10 43 112 60 142 6 10 10 23 10 30 1 7 9 31 20 53 10 22 16 43
14 47 -3 5 0 8 5 8 6 0 10 3 10 8 -1 4 0 10 1 15 1 4 3 10 4 15 1 4 19 59 39
122 20 63 38 124 40 135 2 11 9 40 16 65 7 25 15 53 17 62 2 10 6 26 8 36 2 9
9 35 14 57 6 22 13 56 16 75 3 19 8 46 11 60 12 58 26 140 31 185 2 22 6 49 8
61 27 137 27 658 0 742 -21 63 147 -219 213 -358 56 -118 144 -349 157 -413 6
-29 18 -73 23 -87 8 -20 8 -19 18 -70 5 -25 9 -47 10 -50 6 -27 26 -122 30
-150 3 -19 13 -62 22 -95 8 -33 16 -64 17 -70 18 -78 63 -174 89 -189 27 -16
63 30 76 96 28 138 29 151 30 368 1 196 -9 392 -24 470 -2 14 -7 43 -10 65
-17 133 -24 180 -49 300 -20 98 -56 244 -66 270 -5 14 -12 36 -14 48 -21 113
-146 414 -248 597 -80 146 -211 305 -343 419 -128 110 -361 218 -505 234 -14
1 -29 5 -35 8 -11 7 -280 11 -286 5z"/>
<path d="M3563 4271 c-47 -18 -101 -55 -121 -82 -7 -10 -18 -24 -25 -31 -11
-12 -54 -113 -48 -113 1 0 -3 -13 -9 -30 -21 -54 -25 -108 -24 -295 0 -163 5
-241 19 -330 3 -14 7 -43 10 -65 5 -35 35 -196 49 -265 3 -14 15 -63 26 -110
11 -47 23 -98 26 -115 3 -16 11 -48 19 -70 11 -33 27 -99 30 -125 0 -3 3 -9 7
-15 6 -9 18 -52 54 -185 8 -30 18 -64 23 -75 5 -11 26 -72 46 -135 21 -63 43
-126 50 -140 l13 -25 7 30 c4 17 18 66 31 110 13 44 28 104 34 133 7 28 17 52
22 52 6 0 9 -2 6 -6 -3 -3 1 -26 9 -52 8 -26 16 -56 18 -67 2 -11 15 -58 29
-105 15 -47 29 -96 32 -110 3 -14 32 -106 65 -205 32 -99 59 -187 59 -195 1
-34 34 50 56 140 20 85 54 203 58 207 3 4 6 -2 7 -13 0 -10 3 -28 5 -39 3 -11
6 -26 6 -32 1 -7 6 -13 11 -13 6 0 8 -3 5 -6 -4 -3 -2 -20 3 -37 6 -18 12 -39
14 -47 1 -8 20 -69 40 -135 20 -66 39 -129 42 -140 3 -11 7 -27 10 -35 3 -8
23 -64 43 -125 21 -61 40 -103 43 -95 13 34 58 188 63 214 2 16 11 42 19 59
13 31 13 31 14 7 1 -14 24 -104 51 -200 28 -96 53 -186 56 -198 2 -13 12 -43
20 -65 8 -23 24 -69 34 -102 10 -33 29 -91 42 -129 24 -69 24 -69 36 -40 10
24 24 73 47 164 2 8 12 45 23 82 11 37 16 71 13 74 -3 4 -1 4 5 1 7 -4 15 -24
19 -44 4 -21 22 -92 42 -158 19 -66 36 -128 38 -138 2 -9 7 -22 10 -27 3 -5 8
-20 11 -32 6 -28 9 -38 17 -58 3 -8 26 -79 53 -158 43 -130 62 -167 65 -127 2
16 5 32 9 40 1 3 3 8 4 13 1 4 23 70 48 147 62 186 90 279 123 408 16 59 30
105 32 103 2 -2 6 -16 9 -32 3 -16 8 -38 11 -49 4 -11 8 -25 9 -31 1 -6 9 -36
17 -65 9 -30 23 -80 32 -112 9 -31 20 -55 24 -52 5 2 16 33 26 67 9 35 21 68
26 74 6 7 9 16 8 20 -1 5 1 16 4 24 11 27 68 208 72 229 2 12 6 25 9 29 3 5 7
19 10 33 3 13 14 56 26 94 11 39 22 79 24 90 2 11 9 31 14 45 10 27 12 34 12
51 0 5 4 8 9 4 6 -3 9 -13 9 -23 0 -15 14 -71 41 -159 5 -18 7 -33 4 -33 -3 0
-1 -6 4 -12 6 -7 13 -26 17 -43 7 -26 9 -28 18 -11 5 10 11 25 13 34 2 10 4
17 5 17 1 0 3 7 5 15 2 8 16 47 29 85 14 39 26 71 26 73 -1 1 9 33 20 70 26
80 82 276 100 350 15 58 27 66 36 25 3 -16 8 -36 10 -45 3 -9 7 -25 9 -35 6
-31 64 -225 68 -229 2 -2 29 76 61 174 32 97 62 188 66 202 5 14 16 50 24 80
8 30 24 87 35 125 19 63 26 90 35 134 4 19 23 26 23 9 1 -19 52 -208 66 -243
6 -16 10 -36 9 -42 -2 -7 1 -13 7 -13 7 0 69 167 85 231 3 9 16 54 31 100 15
46 29 95 31 108 3 14 8 29 11 34 5 8 14 41 48 167 21 80 46 178 49 190 1 8 6
26 9 40 13 55 46 207 51 235 3 17 8 47 11 69 4 21 9 48 11 60 2 11 7 41 10 66
3 24 8 56 10 70 22 143 26 378 8 475 -8 44 -17 89 -18 100 -2 11 -4 20 -5 20
-2 0 -4 9 -6 19 -7 37 -50 110 -87 147 -57 56 -125 82 -210 80 -43 -1 -126
-27 -149 -47 -13 -12 -19 -11 -40 12 -38 40 -106 68 -176 71 -35 1 -63 -1 -63
-5 0 -4 -9 -8 -21 -9 -11 -1 -35 -10 -52 -21 -34 -20 -33 -20 -130 30 -21 10
-113 9 -137 -3 -8 -3 -33 -15 -55 -26 -39 -19 -41 -19 -70 -2 -17 10 -38 18
-47 18 -10 1 -18 5 -18 10 0 11 -115 8 -145 -3 -11 -4 -36 -15 -56 -26 l-35
-18 -57 27 c-59 29 -141 39 -174 23 -10 -5 -38 -18 -63 -30 -45 -19 -46 -19
-69 -1 -13 11 -31 19 -42 19 -10 0 -21 4 -24 10 -12 20 -131 4 -192 -25 -32
-16 -61 -33 -65 -39 -6 -8 -10 -8 -15 0 -12 18 -76 54 -95 54 -10 0 -18 4 -18
9 0 21 -115 8 -177 -20 -53 -24 -63 -26 -74 -13 -6 8 -17 14 -23 14 -6 0 -23
6 -37 14 -50 26 -142 16 -225 -25 -16 -8 -32 -5 -71 14 -60 29 -137 32 -200 8z"/>
</g>
</svg>
